<svg version="1.1" xmlns="http://www.w3.org/2000/svg" xmlns:xlink="http://www.w3.org/1999/xlink" x="0px" y="0px"
     viewBox="0 0 560.996 488.063" >

    <g id="Layer_2">
        <polygon points="261.747,295.676 247.026,333.045 229.946,367.301 216.386,390.205 195.698,415.789 172.917,454.289 
            123.325,488.063 121.126,470.443 143.948,452.967 163.297,423.818 175.701,393.354 133.373,432.463 102.012,461.563 60.89,485.211 
            57.168,479.033 57.464,472.541 57.875,463.551 89.621,436.971 106.56,427.734 140.491,375.227 137.268,369.074 95.941,397.219 
            78.412,408.43 51.252,433.217 13.923,450.531 14.996,427.057 29.62,413.709 47.218,400.998 113.161,348.953 114.048,340.484 
            115.321,334.537 79.037,350.898 52.628,370.213 36.71,378.996 2.222,388.934 0,371.814 29.905,352.658 39.375,342.58 
            58.925,330.961 77.409,320.793 113.08,306.906 144.599,274.311 146.486,265.887 121.851,268.266 84.571,273.57 57.553,273.338 
            69.363,255.857 96.722,248.599 125.92,244.928 153.623,230.176 168.29,226.842 193.763,228.004 206.977,223.604 233.287,228.809     
            "/>
        <g id="Layer_3">
            <polyline points="216.368,225.461 317.938,102.104 484.438,-110.666 672.957,-110.666 391.938,167.104 328.938,223.604 
                290.438,261.104 261.747,295.676         "/>
        </g>
    </g>
</svg> 